<?xml version="1.0" encoding="utf-8"?>
<!-- Generator: Adobe Illustrator 22.1.0, SVG Export Plug-In . SVG Version: 6.00 Build 0)  -->
<svg version="1.1" id="exoticpets" xmlns="http://www.w3.org/2000/svg" xmlns:xlink="http://www.w3.org/1999/xlink" x="0px" y="0px"
	 viewBox="0 0 292.6 292.6" style="enable-background:new 0 0 292.6 292.6;" xml:space="preserve">
<style type="text/css">
	.st0{fill:#F6AA34;}
	.st1{clip-path:url(#SVGID_3_);}
	.st2{fill:#FFFFFF;}
	.st3{fill:#F6AA34;stroke:#F6AA34;stroke-width:3.8367;stroke-miterlimit:10;}
	.st4{opacity:0.5;fill:#F6AA34;}
	.st5{fill:none;stroke:#F6AA34;stroke-width:2;stroke-miterlimit:10;}
</style>
<g>
	<circle class="st0" cx="146.3" cy="146.3" r="146.3"/>
</g>
<g>
	<g>
		<g>
			<defs>
				<circle id="SVGID_2_" cx="146.3" cy="146.3" r="146.3"/>
			</defs>
			<clipPath id="SVGID_3_">
				<use xlink:href="#SVGID_2_"  style="overflow:visible;"/>
			</clipPath>
			<g class="st1">
				<g>
					<path class="st2" d="M97.9,181.2c0.1,2.2,0.1,4.5,0.2,6.8c0.3,27.2-3.4,72.8-14.8,108l-56.5,1.5c-7.8-20.4-13.3-53.9-16.5-71.8
						c-0.3-1.6-0.6-3.3-0.8-4.9c-0.2-1.2-0.4-2.4-0.6-3.6c-1.8-12.6-2.6-24.5-2.6-35.6c0-1.8,0-3.5,0-5.2c0-2.4,0.2-4.8,0.2-7.1
						c3.7-75.3,42.2-116,42.2-116s24,22.9,38.5,67.5c0.7,2.3,1.5,4.7,2.2,7.3c0.3,1.2,0.7,2.5,1,3.7c3.5,13,6,27.7,7.1,44.1
						C97.8,177.6,97.8,179.3,97.9,181.2z"/>
					<path class="st2" d="M97.7,175.8l-66.5,37.6l-1.6-11.6L8.9,217c-1.8-12.6-2.6-24.5-2.6-35.6l34.9-21.7l2.9,15.4l46.5-43.3
						C94.1,144.9,96.6,159.6,97.7,175.8z"/>
					<path class="st3" d="M89.5,128l-42.6,37.4l-3.8-12.3L6.3,176.2c0-2.4,0.2-4.8,0.2-7.1l39.8-25.6l4,11.9L87.3,121
						C88.1,123.1,88.8,125.5,89.5,128z"/>
					<path class="st3" d="M9.5,220.6l17.4-11.8l1.2,11.6l69.9-39.2c0.1,2.2,0.1,4.5,0.2,6.8l-74.4,40.4l-1.2-9.7l-12.3,6.9
						L9.5,220.6z"/>
				</g>
			</g>
			<g class="st1">
				<g>
					<path class="st2" d="M195.7,181.2c0.1,2.2,0.1,4.5,0.2,6.8c0.3,27.2-3.4,72.8-14.8,108l-56.5,1.5
						c-7.8-20.4-13.3-53.9-16.5-71.8c-0.3-1.6-0.6-3.3-0.8-4.9c-0.2-1.2-0.4-2.4-0.6-3.6c-1.8-12.6-2.6-24.5-2.6-35.6
						c0-1.8,0-3.5,0-5.2c0-2.4,0.2-4.8,0.2-7.1c3.7-75.3,42.2-116,42.2-116s24,22.9,38.5,67.5c0.7,2.3,1.5,4.7,2.2,7.3
						c0.3,1.2,0.7,2.5,1,3.7c3.5,13,6,27.7,7.1,44.1C195.6,177.6,195.6,179.3,195.7,181.2z"/>
					<path class="st4" d="M195.5,175.8l-66.5,37.6l-1.6-11.6L106.7,217c-1.8-12.6-2.6-24.5-2.6-35.6l34.9-21.7l2.9,15.4l46.5-43.3
						C191.9,144.9,194.5,159.6,195.5,175.8z"/>
					<path class="st3" d="M187.4,128l-42.6,37.4l-3.8-12.3l-36.9,23.1c0-2.4,0.2-4.8,0.2-7.1l39.8-25.6l4,11.9l36.9-34.4
						C185.9,123.1,186.6,125.5,187.4,128z"/>
					<path class="st3" d="M107.3,220.6l17.4-11.8l1.2,11.6l69.9-39.2c0.1,2.2,0.1,4.5,0.2,6.8l-74.4,40.4l-1.2-9.7l-12.3,6.9
						L107.3,220.6z"/>
				</g>
			</g>
			<g class="st1">
				<g>
					<path class="st2" d="M293.6,181.2c0.1,2.2,0.1,4.5,0.2,6.8c0.3,27.2-3.4,72.8-14.8,108l-56.5,1.5
						c-7.8-20.4-13.3-53.9-16.5-71.8c-0.3-1.6-0.6-3.3-0.8-4.9c-0.2-1.2-0.4-2.4-0.6-3.6c-1.8-12.6-2.6-24.5-2.6-35.6
						c0-1.8,0-3.5,0-5.2c0-2.4,0.2-4.8,0.2-7.1c3.7-75.3,42.2-116,42.2-116s24,22.9,38.5,67.5c0.7,2.3,1.5,4.7,2.2,7.3
						c0.3,1.2,0.7,2.5,1,3.7c3.5,13,6,27.7,7.1,44.1C293.4,177.6,293.5,179.3,293.6,181.2z"/>
					<path class="st2" d="M293.4,175.8l-66.5,37.6l-1.6-11.6L204.5,217c-1.8-12.6-2.6-24.5-2.6-35.6l34.9-21.7l2.9,15.4l46.5-43.3
						C289.7,144.9,292.3,159.6,293.4,175.8z"/>
					<path class="st3" d="M285.2,128l-42.6,37.4l-3.8-12.3l-36.9,23.1c0-2.4,0.2-4.8,0.2-7.1l39.8-25.6l4,11.9l36.9-34.4
						C283.7,123.1,284.5,125.5,285.2,128z"/>
					<path class="st3" d="M205.2,220.6l17.4-11.8l1.2,11.6l69.9-39.2c0.1,2.2,0.1,4.5,0.2,6.8l-74.4,40.4l-1.2-9.7l-12.3,6.9
						L205.2,220.6z"/>
				</g>
			</g>
		</g>
	</g>
	<g>
		<circle id="SVGID_1_" class="st5" cx="146.3" cy="146.3" r="146.3"/>
	</g>
</g>
</svg>
