<?xml version="1.0" encoding="utf-8"?>
<!-- Generator: Adobe Illustrator 22.1.0, SVG Export Plug-In . SVG Version: 6.00 Build 0)  -->
<svg version="1.1" id="health" xmlns="http://www.w3.org/2000/svg" xmlns:xlink="http://www.w3.org/1999/xlink" x="0px" y="0px"
	 viewBox="0 0 292.6 292.6" style="enable-background:new 0 0 292.6 292.6;" xml:space="preserve">
<style type="text/css">
	.st0{fill:#C93A27;}
	.st1{clip-path:url(#SVGID_2_);}
	.st2{fill:#FFFFFF;}
	.st3{fill:#FFFFFF;stroke:#C93A27;stroke-width:1.8046;stroke-miterlimit:10;}
</style>
<g>
	<circle class="st0" cx="146.3" cy="146.3" r="146.3"/>
</g>
<g>
	<defs>
		<circle id="SVGID_1_" cx="146.3" cy="146.3" r="146.3"/>
	</defs>
	<clipPath id="SVGID_2_">
		<use xlink:href="#SVGID_1_"  style="overflow:visible;"/>
	</clipPath>
	<g class="st1">
		<path class="st2" d="M239.1,73c-23.4,40.8-46.7,71.4-59.5,64.1c-12.7-7.3,2-42.9,25.4-83.6s59.5-64.1,59.5-64.1
			S262.5,32.2,239.1,73z"/>
		<g>
			<path class="st3" d="M219.6,89.1L219.6,89.1c-1.3-1.6-1.1-4.1,0.6-5.4l16.2-13c1.6-1.3,4.1-1.1,5.4,0.6l0,0
				c1.3,1.6,1.1,4.1-0.6,5.4l-16.2,13C223.3,91,220.9,90.7,219.6,89.1z"/>
			<path class="st3" d="M201,78.4L201,78.4c2.1,0.3,4-1.1,4.4-3.2l3.1-20.5c0.3-2.1-1.1-4-3.2-4.4l0,0c-2.1-0.3-4,1.1-4.4,3.2
				L197.7,74C197.4,76.1,198.9,78.1,201,78.4z"/>
		</g>
		<g>
			<path class="st3" d="M218.6,91.8l-19.5-11.2c-3.2-1.8-4.3-5.9-2.5-9.1v0c1.8-3.2,5.9-4.3,9.1-2.5l19.5,11.2
				c3.2,1.8,4.3,5.9,2.5,9.1v0C225.9,92.5,221.8,93.6,218.6,91.8z"/>
			<ellipse transform="matrix(0.4981 -0.8671 0.8671 0.4981 39.7022 224.336)" class="st3" cx="213.6" cy="77.9" rx="7.7" ry="6"/>
		</g>
	</g>
	<g class="st1">
		<path class="st2" d="M102.5,237.2C79,278,55.7,308.6,43,301.3s2-42.9,25.4-83.6s59.5-64.1,59.5-64.1S125.9,196.4,102.5,237.2z"/>
		<g>
			<path class="st3" d="M83,253.3L83,253.3c-1.3-1.6-1.1-4.1,0.6-5.4l16.2-13c1.6-1.3,4.1-1.1,5.4,0.6l0,0c1.3,1.6,1.1,4.1-0.6,5.4
				l-16.2,13C86.7,255.3,84.3,255,83,253.3z"/>
			<path class="st3" d="M64.3,242.6L64.3,242.6c2.1,0.3,4-1.1,4.4-3.2l3.1-20.5c0.3-2.1-1.1-4-3.2-4.4h0c-2.1-0.3-4,1.1-4.4,3.2
				l-3.1,20.5C60.8,240.4,62.2,242.3,64.3,242.6z"/>
		</g>
		<g>
			<path class="st3" d="M82,256l-19.5-11.2c-3.2-1.8-4.3-5.9-2.5-9.1l0,0c1.8-3.2,5.9-4.3,9.1-2.5l19.5,11.2
				c3.2,1.8,4.3,5.9,2.5,9.1l0,0C89.3,256.7,85.2,257.9,82,256z"/>
			<ellipse transform="matrix(0.4981 -0.8671 0.8671 0.4981 -171.2943 188.3123)" class="st3" cx="77" cy="242.1" rx="7.7" ry="6"/>
		</g>
	</g>
	<g class="st1">
		<path class="st2" d="M221.7,235.6c-23.4,40.8-46.7,71.4-59.5,64.1c-12.7-7.3,2-42.9,25.4-83.6s59.5-64.1,59.5-64.1
			S245.2,194.8,221.7,235.6z"/>
		<g>
			<path class="st3" d="M202.2,251.8L202.2,251.8c-1.3-1.6-1.1-4.1,0.6-5.4l16.2-13c1.6-1.3,4.1-1.1,5.4,0.6l0,0
				c1.3,1.6,1.1,4.1-0.6,5.4l-16.2,13C206,253.7,203.5,253.4,202.2,251.8z"/>
			<path class="st3" d="M183.6,241.1L183.6,241.1c2.1,0.3,4-1.1,4.4-3.2l3.1-20.5c0.3-2.1-1.1-4-3.2-4.4h0c-2.1-0.3-4,1.1-4.4,3.2
				l-3.1,20.5C180,238.8,181.5,240.7,183.6,241.1z"/>
		</g>
		<g>
			<path class="st3" d="M201.3,254.4l-19.5-11.2c-3.2-1.8-4.3-5.9-2.5-9.1v0c1.8-3.2,5.9-4.3,9.1-2.5l19.5,11.2
				c3.2,1.8,4.3,5.9,2.5,9.1v0C208.5,255.2,204.4,256.3,201.3,254.4z"/>
			
				<ellipse transform="matrix(0.4981 -0.8671 0.8671 0.4981 -110.0771 290.9178)" class="st3" cx="196.3" cy="240.5" rx="7.7" ry="6"/>
		</g>
	</g>
	<g class="st1">
		<path class="st2" d="M119.9,74.5c-23.4,40.8-46.7,71.4-59.5,64.1s2-42.9,25.4-83.6s59.5-64.1,59.5-64.1S143.3,33.8,119.9,74.5z"/>
		<g>
			<path class="st3" d="M100.4,90.7L100.4,90.7c-1.3-1.6-1.1-4.1,0.6-5.4l16.2-13c1.6-1.3,4.1-1.1,5.4,0.6l0,0
				c1.3,1.6,1.1,4.1-0.6,5.4l-16.2,13C104.1,92.6,101.7,92.3,100.4,90.7z"/>
			<path class="st3" d="M81.7,80L81.7,80c2.1,0.3,4-1.1,4.4-3.2l3.1-20.5c0.3-2.1-1.1-4-3.2-4.4h0c-2.1-0.3-4,1.1-4.4,3.2l-3.1,20.5
				C78.2,77.7,79.6,79.6,81.7,80z"/>
		</g>
		<g>
			<path class="st3" d="M99.4,93.3L79.9,82.1c-3.2-1.8-4.3-5.9-2.5-9.1l0,0c1.8-3.2,5.9-4.3,9.1-2.5L106,81.8
				c3.2,1.8,4.3,5.9,2.5,9.1v0C106.7,94.1,102.6,95.2,99.4,93.3z"/>
			<ellipse transform="matrix(0.4981 -0.8671 0.8671 0.4981 -21.515 121.7305)" class="st3" cx="94.4" cy="79.5" rx="7.7" ry="6"/>
		</g>
	</g>
</g>
</svg>
