<?xml version="1.0" encoding="utf-8"?>
<!-- Generator: Adobe Illustrator 22.1.0, SVG Export Plug-In . SVG Version: 6.00 Build 0)  -->
<svg version="1.1" id="nutrition" xmlns="http://www.w3.org/2000/svg" xmlns:xlink="http://www.w3.org/1999/xlink" x="0px" y="0px"
	 viewBox="0 0 292.6 292.6" style="enable-background:new 0 0 292.6 292.6;" xml:space="preserve">
<style type="text/css">
	.st0{fill:#9B0060;}
	.st1{fill:#FFFFFF;}
</style>
<g>
	<circle class="st0" cx="146.3" cy="146.3" r="146.3"/>
</g>
<g>
	<polygon class="st1" points="181.8,265 109.8,265 94.9,105.3 196.7,105.3 	"/>
	<path class="st0" d="M181.6,157.9l-8.3,98.2h-55l-9.1-106.9c5.3-0.2,11.2,0.8,17.8,3.4C144.6,159.6,163.6,162,181.6,157.9z"/>
	<polygon class="st1" points="134.4,105.3 121,30.3 168.7,30.3 170.6,48.5 136.9,48.5 144.9,105.3 	"/>
	<path class="st1" d="M116.1,122l10.7,120.7c0.2,1.8,1.7,3.2,3.5,3.2l0,0c2.1,0,3.7-1.8,3.5-3.8L124,121.3c-0.2-2-1.9-3.6-3.9-3.6
		l0,0C117.7,117.7,115.9,119.7,116.1,122z"/>
	<path class="st1" d="M165.9,188.7c0,0.9-0.8,1.7-1.7,1.7s-1.7-0.8-1.7-1.7s0.8-1.7,1.7-1.7C165.1,187,165.9,187.8,165.9,188.7z"/>
	<path class="st1" d="M157.2,199.2c0,1-0.8,1.8-1.8,1.8s-1.8-0.8-1.8-1.8s0.8-1.8,1.8-1.8S157.2,198.2,157.2,199.2z"/>
	<path class="st1" d="M167.6,204.4c0,0.9-0.8,1.7-1.7,1.7s-1.7-0.8-1.7-1.7s0.8-1.7,1.7-1.7S167.6,203.4,167.6,204.4z"/>
	<path class="st1" d="M156.7,212.7c0,1.2-0.9,2.1-2.1,2.1c-1.2,0-2.1-0.9-2.1-2.1c0-1.2,0.9-2.1,2.1-2.1
		C155.8,210.5,156.7,211.5,156.7,212.7z"/>
	<path class="st1" d="M165.9,220.9c0,0.9-0.8,1.7-1.7,1.7s-1.7-0.8-1.7-1.7s0.8-1.7,1.7-1.7C165.1,219.2,165.9,220,165.9,220.9z"/>
</g>
</svg>
