<?xml version="1.0" encoding="utf-8"?>
<!-- Generator: Adobe Illustrator 22.1.0, SVG Export Plug-In . SVG Version: 6.00 Build 0)  -->
<svg version="1.1" id="grooming" xmlns="http://www.w3.org/2000/svg" xmlns:xlink="http://www.w3.org/1999/xlink" x="0px" y="0px"
	 viewBox="0 0 292.6 292.6" style="enable-background:new 0 0 292.6 292.6;" xml:space="preserve">
<style type="text/css">
	.st0{fill:#4353B2;}
	.st1{fill:#FFFFFF;}
	.st2{fill:none;stroke:#FFFFFF;stroke-width:7.3724;stroke-linecap:round;stroke-linejoin:round;stroke-miterlimit:10;}
</style>
<circle class="st0" cx="146.3" cy="146.3" r="146.3"/>
<g>
	<ellipse class="st1" cx="146.3" cy="146.3" rx="87.9" ry="87.9"/>
	<g>
		<path class="st0" d="M178.7,163.7c0,8.5-3.3,16.3-8.7,22.1c-5.9,6.3-14.3,10.3-23.7,10.3c-9.3,0-17.8-4-23.7-10.3
			c-5.4-5.8-8.7-13.5-8.7-22.1H178.7z"/>
	</g>
	<g>
		<g>
			<g>
				<line class="st2" x1="146.3" y1="19.6" x2="146.3" y2="41.2"/>
				<line class="st2" x1="146.3" y1="251.4" x2="146.3" y2="273"/>
			</g>
			<g>
				<line class="st2" x1="235.9" y1="56.7" x2="220.6" y2="72"/>
				<line class="st2" x1="72" y1="220.6" x2="56.7" y2="235.9"/>
			</g>
			<g>
				<line class="st2" x1="273" y1="146.3" x2="251.4" y2="146.3"/>
				<line class="st2" x1="41.2" y1="146.3" x2="19.6" y2="146.3"/>
			</g>
			<g>
				<line class="st2" x1="235.9" y1="235.9" x2="220.6" y2="220.6"/>
				<line class="st2" x1="72" y1="72" x2="56.7" y2="56.7"/>
			</g>
		</g>
		<g>
			<g>
				<line class="st2" x1="96.8" y1="29.7" x2="105.2" y2="49.6"/>
				<line class="st2" x1="187.4" y1="243" x2="195.8" y2="262.9"/>
			</g>
			<g>
				<line class="st2" x1="193.8" y1="28.9" x2="185.7" y2="48.9"/>
				<line class="st2" x1="106.9" y1="243.7" x2="98.8" y2="263.7"/>
			</g>
			<g>
				<line class="st2" x1="262.9" y1="96.8" x2="243" y2="105.2"/>
				<line class="st2" x1="49.6" y1="187.4" x2="29.7" y2="195.8"/>
			</g>
			<g>
				<line class="st2" x1="263.7" y1="193.8" x2="243.7" y2="185.7"/>
				<line class="st2" x1="48.9" y1="106.9" x2="28.9" y2="98.8"/>
			</g>
		</g>
	</g>
</g>
</svg>
