<?xml version="1.0" encoding="utf-8"?>
<!-- Generator: Adobe Illustrator 22.1.0, SVG Export Plug-In . SVG Version: 6.00 Build 0)  -->
<svg version="1.1" id="pestcontrol" xmlns="http://www.w3.org/2000/svg" xmlns:xlink="http://www.w3.org/1999/xlink" x="0px"
	 y="0px" viewBox="0 0 292.6 292.6" style="enable-background:new 0 0 292.6 292.6;" xml:space="preserve">
<style type="text/css">
	.st0{fill:#301AFF;}
	.st1{fill:#FFFFFF;}
</style>
<g>
	<circle class="st0" cx="146.3" cy="146.3" r="146.3"/>
</g>
<path class="st1" d="M222.5,74.5c-8.5-8.5-18.1-15.3-28.4-20.3C154.8,35,105.8,41.7,73.1,74.5C62.3,85.2,54.4,97.7,49.2,111
	c2.8-4,6-7.8,9.6-11.4c5.7-5.7,12.1-10.5,18.8-14.3c-3.7,6-6.7,12.5-8.8,19.5c-3.5,11.4-4.3,23-3,34.1c0.5-3.8,1.3-7.6,2.4-11.4
	c5.9-19.4,19.7-34.2,36.7-42c-5.2,7.3-9.4,15.5-12.2,24.5c-3.5,11.4-4.3,23-3,34.1c0.5-3.8,1.3-7.6,2.4-11.4
	c9.1-30.1,37.2-49.2,67.2-48.2c0.6,0,1.2,0,1.7,0.1c5.3,0.3,10.6,1.2,15.9,2.8c32.1,9.8,51.7,41.1,47.7,73.3
	c-0.5,3.8-1.3,7.7-2.4,11.5c-13.4,63.5-89.7,78.3-116.2,74.1c38.5,16.5,84.9,9,116.3-22.5c20.1-20.1,30.4-46.4,30.9-72.7
	C254,123.5,243.7,95.6,222.5,74.5z"/>
<path class="st1" d="M212.5,170.8c0,0-9,37-44.5,54s-68,13.5-94,2C167,239.8,212.5,170.8,212.5,170.8z"/>
</svg>
