<?xml version="1.0" encoding="utf-8"?>
<!-- Generator: Adobe Illustrator 22.1.0, SVG Export Plug-In . SVG Version: 6.00 Build 0)  -->
<svg version="1.1" id="vaccination" xmlns="http://www.w3.org/2000/svg" xmlns:xlink="http://www.w3.org/1999/xlink" x="0px"
	 y="0px" viewBox="0 0 300 300" style="enable-background:new 0 0 300 300;" xml:space="preserve">
<style type="text/css">
	.st0{fill:#00A29B;}
	.st1{fill:#00A29B;stroke:#FFFFFF;stroke-width:3;stroke-miterlimit:10;}
	.st2{fill:#FFFFFF;}
</style>
<g>
	<circle class="st0" cx="150" cy="150" r="150"/>
</g>
<g>
	<path class="st1" d="M237.9,105.5c-0.3-12.1-5.2-24.2-14.7-33.2c-19-18.1-49-17.3-67,1.6l-80.3,84.3l68.7,65.4l80.2-84.2
		C233.8,129.8,238.2,117.6,237.9,105.5z"/>
	<path class="st2" d="M101.9,182.9l-36.6,38.4c-4.4,4.6-4.2,11.9,0.4,16.3c4.6,4.4,11.9,4.2,16.3-0.4l36.6-38.4L101.9,182.9z"/>
	<path class="st2" d="M224.8,139.3l-25.4,26.8c-2.3,2.4-6.1,2.5-8.6,0.2l0,0c-2.4-2.3-6.3-2.2-8.6,0.2l-16.3,17.1
		c-1.7,1.8-4.6,1.9-6.4,0.2l0,0c-1.8-1.7-1.9-4.6-0.2-6.4l17.1-18c1.9-2,1.8-5.1-0.2-7l0,0c-2-1.9-5.1-1.8-7,0.2l-6.7,7
		c-3.1,3.3-8.3,3.4-11.6,0.3l0,0c-3.3-3.1-3.4-8.3-0.3-11.6l10.8-11.3c2.9-3,2.7-7.7-0.3-10.6l0,0c-3-2.9-7.7-2.7-10.6,0.3l-25.7,27
		c-2.9,3.1-7.8,3.2-10.8,0.3l0,0c-3.1-2.9-3.2-7.8-0.3-10.8l19.1-20.1c1.8-1.9,1.7-4.8-0.2-6.5l0,0c-1.9-1.8-4.8-1.7-6.5,0.2l-5.7,6
		c-1.5,1.6-4,1.6-5.5,0.1l0,0c-1.6-1.5-1.6-4-0.1-5.5l40.5-42.5c17.3-18.2,46-20.6,65.3-4.5c11.1,9.2,16.8,22.2,17.1,35.3
		C238.2,117.6,233.8,129.8,224.8,139.3z"/>
</g>
</svg>
